# xmcd
#
# Track frame offsets: 
#        150
#        21638
#        40040
#        52585
#        71692
#        96604
#        125094
#        144150
#        164685
#        183245
#        203893
#        228330
#        251318
#        280580
#        301194
#        324132
#        341847
#
# Disc length: 4781 seconds
#
# Revision: 0
# Processed by: cddbd v1.5.2PL0 Copyright (c) Steve Scherf et al.
# Submitted via: ExactAudioCopy v0.95a5
#
DISCID=ed12ab11
DTITLE=Mark Knopfler - Country-Blues Route part1  CD1
DYEAR=2011
DGENRE=Blues
TTITLE0=Wag the Dog
TTITLE1=Devil Baby
TTITLE2=In the Heartland (instrumental)
TTITLE3=Just One Time (with Chet Atkins)
TTITLE4=Silvertown blues
TTITLE5=Gravy Train
TTITLE6=Rollin' On (with Emmylou Harris)
TTITLE7=Get Lucky
TTITLE8=Postcards From Paraguay
TTITLE9=Junkie doll
TTITLE10=Nobody's Got The Gun
TTITLE11=Don't Crash The Ambulance
TTITLE12=There'll Be Some Changes Made (with Chet Atkins)
TTITLE13=Old Pigweed
TTITLE14=Remembrance Day
TTITLE15=Tears (with Chet Atkins)
TTITLE16=Secondary Waltz
EXTD=
EXTT0=
EXTT1=
EXTT2=
EXTT3=
EXTT4=
EXTT5=
EXTT6=
EXTT7=
EXTT8=
EXTT9=
EXTT10=
EXTT11=
EXTT12=
EXTT13=
EXTT14=
EXTT15=
EXTT16=
PLAYORDER=
